<?xml version="1.0" encoding="UTF-8"?>
<svg id="Calque_2" data-name="Calque 2" xmlns="http://www.w3.org/2000/svg" viewBox="0 0 120 54.88">
  <defs>
    <style>
      .cls-1 {
        fill: #ffc629;
      }

      .cls-1, .cls-2 {
        stroke-width: 0px;
      }

      .cls-2 {
        fill: #1c355e;
      }
    </style>
  </defs>
  <g id="Calque_1-2" data-name="Calque 1">
    <g>
      <path class="cls-2" d="m72.96,0c-6.08,0-10.16,3.2-12.48,7.04V1.12h-13.68v53.76h13.68v-19.36c2,4,6.32,6.88,12.4,6.88,9.44,0,16.96-6.96,16.96-20.8v-.64c0-13.84-7.6-20.96-16.88-20.96m2.96,21.52c0,6.64-2.72,10.24-7.92,10.24s-8-3.44-8-10.32v-.64c0-6.8,2.96-10.4,8-10.4s7.92,3.36,7.92,10.48v.64Z"/>
      <path class="cls-2" d="m107.12,9.12V1.12h-13.76v40.24h13.68v-19.12c0-6.48,4.64-9.12,12.96-8.88V.48c-6.16,0-10.4,2.64-12.88,8.64"/>
      <polygon class="cls-2" points="14.88 1.12 0 1.12 14.8 21.2 0 41.36 14.88 41.36 22.16 31.36 29.52 41.36 44.4 41.36 29.6 21.2 14.88 1.12"/>
      <polygon class="cls-1" points="44.4 1.12 29.52 1.12 24.88 7.36 32.32 17.52 44.4 1.12"/>
    </g>
  </g>
</svg>