<?xml version="1.0" encoding="UTF-8"?>
<svg id="Calque_2" data-name="Calque 2" xmlns="http://www.w3.org/2000/svg" viewBox="0 0 150.61 68.46">
  <defs>
    <style>
      .cls-1 {
        fill: #ffc629;
      }

      .cls-1, .cls-2 {
        stroke-width: 0px;
      }

      .cls-2 {
        fill: #1c355e;
      }
    </style>
  </defs>
  <g id="Calque_1-2" data-name="Calque 1">
    <g>
      <path class="cls-2" d="m91.49,0c-7.6,0-12.79,4.04-15.67,8.84V1.35h-17.21v67.11h17.21v-24.23c2.5,5,7.98,8.56,15.58,8.56,11.83,0,21.34-8.65,21.34-25.96v-.77c0-17.21-9.52-26.06-21.25-26.06m3.75,26.83c0,8.27-3.46,12.79-9.9,12.79s-10-4.33-10-12.88v-.77c0-8.46,3.75-12.98,10-12.98s9.9,4.23,9.9,13.08v.77Z"/>
      <path class="cls-2" d="m134.36,11.35V1.35h-17.21v50.29h17.21v-23.84c0-8.08,5.77-11.35,16.25-11.06V.67c-7.79-.1-13.08,3.17-16.25,10.67"/>
      <polygon class="cls-2" points="18.66 1.35 0 1.35 18.5 26.49 0 51.63 18.66 51.63 27.82 39.17 37 51.63 55.65 51.63 37.15 26.49 18.66 1.35"/>
      <polygon class="cls-1" points="55.65 1.35 37 1.35 31.23 9.18 40.56 21.86 55.65 1.35"/>
    </g>
  </g>
</svg>