<?xml version="1.0" encoding="UTF-8"?>
<svg id="Calque_2" data-name="Calque 2" xmlns="http://www.w3.org/2000/svg" viewBox="0 0 124.21 56.46">
  <defs>
    <style>
      .cls-1 {
        fill: #ffc629;
      }

      .cls-1, .cls-2 {
        stroke-width: 0px;
      }

      .cls-2 {
        fill: #1c355e;
      }
    </style>
  </defs>
  <g id="Calque_1-2" data-name="Calque 1">
    <g>
      <path class="cls-2" d="m75.46,0c-6.27,0-10.55,3.33-12.93,7.29V1.11h-14.19v55.35h14.19v-19.98c2.06,4.12,6.58,7.06,12.85,7.06,9.75,0,17.6-7.14,17.6-21.41v-.64c0-14.19-7.85-21.49-17.52-21.49m3.09,22.12c0,6.82-2.85,10.55-8.17,10.55s-8.25-3.57-8.25-10.62v-.64c0-6.98,3.09-10.71,8.25-10.71s8.17,3.49,8.17,10.78v.64Z"/>
      <path class="cls-2" d="m110.81,9.36V1.11h-14.2v41.47h14.2v-19.66c0-6.66,4.76-9.36,13.4-9.12V.55c-6.42-.08-10.78,2.62-13.4,8.8"/>
      <polygon class="cls-2" points="15.39 1.11 0 1.11 15.26 21.85 0 42.58 15.39 42.58 22.95 32.3 30.51 42.58 45.9 42.58 30.64 21.85 15.39 1.11"/>
      <polygon class="cls-1" points="45.9 1.11 30.51 1.11 25.75 7.57 33.45 18.03 45.9 1.11"/>
    </g>
  </g>
</svg>