<svg xmlns="http://www.w3.org/2000/svg" viewBox="0 0 492.45 230.19"><defs><style>.cls-1{fill:#99061b;}.cls-2{fill:#fff;}.cls-3{fill:#929497;}</style></defs><g id="Calque_2" data-name="Calque 2"><g id="Calque_1-2" data-name="Calque 1"><path class="cls-1" d="M302.55,187.36H274.33L271,160.59H237.09l-3.41,26.77H205.41L233.67,0h40.62Zm-62.23-52.29h27.41L254,26.33Z"/><rect class="cls-1" width="187.36" height="187.36"/><rect class="cls-2" x="16.86" y="58.99" width="17.03" height="69.38"/><rect class="cls-2" x="50.95" y="16.89" width="17.03" height="153.46"/><rect class="cls-2" x="85.16" y="34.11" width="17.03" height="119.15"/><rect class="cls-2" x="119.21" y="76.07" width="17.03" height="35.17"/><rect class="cls-2" x="153.21" y="51.64" width="17.03" height="84.2"/><path class="cls-1" d="M356,83h40.29v58.54c0,29.26-15.93,45.65-43.51,45.65s-41.87-16.72-41.87-46V46.17c0-29.26,14.3-46,41.87-46s43.5,17.37,43.5,46.63l0,19.16H368V44.39c0-13.06-5.56-18.07-14.5-18.07s-14.56,5-14.56,18v98.75c0,13.06,5.62,17.76,14.56,17.76s14.55-4.7,14.55-17.76L368,108.46H356Z"/><path class="cls-1" d="M442.13,83l32.47,0v25.41H442.13v52.12h49.7v26.75H413.35V.09h78.48V26.32h-49.7Z"/><path class="cls-3" d="M389.62,219.51h-6.73l-2.17,10.67h-4.66L383,196.07h6.55l6.91,34.11h-4.65Zm-.88-4.24L386.25,203c-.87,4.14-1.66,8.09-2.49,12.23Z"/><path class="cls-3" d="M411.76,225.94v4.24H399.12V196.07h4.57v29.87Z"/><path class="cls-3" d="M415.45,225.79a10.9,10.9,0,0,1-1-4.14V204.59a10.93,10.93,0,0,1,1-4.14,8.32,8.32,0,0,1,14.66,0,10.82,10.82,0,0,1,1,4.14v2.15h-4.61v-2.15c0-.78-.46-4.24-3.73-4.24s-3.78,3.51-3.78,4.24v17.06c0,.73.5,4.29,3.78,4.29s3.73-3.51,3.73-4.29v-6.39h-3V211h7.61v10.67a10.78,10.78,0,0,1-1,4.14,8.31,8.31,0,0,1-14.66,0Z"/><path class="cls-3" d="M438.36,200.35V211h7.52v4.28h-7.52v10.68h10.1v4.24H433.8V196.07h14.66v4.28Z"/><path class="cls-3" d="M467.83,219.51v10.67h-4.61V219.51c0-1.95-1.76-4.24-3.74-4.24H455.7v14.91h-4.57V196.07h8.35c.14,0,8.35,0,8.35,9.6A9.89,9.89,0,0,1,465,213,8.32,8.32,0,0,1,467.83,219.51Zm-4.61-13.84c0-2.39-.6-3.9-1.85-4.68a3.93,3.93,0,0,0-1.89-.63H455.7V211h3.78C460.59,211,463.22,209.81,463.22,205.67Z"/><path class="cls-3" d="M475.07,196.07v34.11H470.5V196.07Z"/><path class="cls-3" d="M482.35,200.37V211h7.51v4.29h-7.51V226h10.1v4.24H477.78V196.08h14.67v4.29Z"/></g></g></svg>