<svg xmlns="http://www.w3.org/2000/svg" viewBox="0 0 260.26 260.26"><defs><style>.cls-1{fill:#0060a9;}.cls-2{fill:#db0032;}</style></defs><g id="Calque_2" data-name="Calque 2"><g id="Calque_1-2" data-name="Calque 1"><path class="cls-1" d="M9.18,9.18h242v242H9.18ZM0,260.26H260.26V0H0Z"/><path class="cls-1" d="M56.41,167.54a2.79,2.79,0,0,0,2.87,2.6,2.69,2.69,0,0,0,2.86-2.46c0-1.82-1.73-2.22-3.4-2.71-1.16-.31-3.66-1-3.66-3.42S57.14,158,59.33,158c1.78,0,3.83.89,4.07,3.33H61.81a2.61,2.61,0,0,0-5.14.11c0,1.57,1.39,1.95,3.56,2.61,1.36.48,3.49,1.16,3.49,3.53,0,2.11-1.75,3.79-4.42,3.79-2.4,0-4.4-1.36-4.5-3.82Z"/><polygon class="cls-1" points="72.14 158.22 80.08 158.22 80.08 159.49 73.73 159.49 73.75 163.98 80.05 163.98 80.06 165.25 73.75 165.25 73.76 169.86 80.11 169.86 80.11 171.13 72.17 171.13 72.14 158.22"/><path class="cls-1" d="M100.87,167.66a7.17,7.17,0,0,1-6.57,3.7c-4.24,0-7.48-3-7.49-6.69S90,158,94.25,158a7.37,7.37,0,0,1,6.61,3.77H99.13a5.85,5.85,0,0,0-4.88-2.5,5.43,5.43,0,1,0,0,10.83,5.92,5.92,0,0,0,4.87-2.43Z"/><path class="cls-1" d="M109.85,158.22v8.18a3.68,3.68,0,0,0,.69,2.61,3.2,3.2,0,0,0,2.49,1.08,3.08,3.08,0,0,0,2.46-1.07,3.64,3.64,0,0,0,.67-2.62v-8.18h1.59v8.18c0,1.5-.19,3-1.62,4a5,5,0,0,1-3.09,1,5.21,5.21,0,0,1-3.16-1c-1.51-1.1-1.63-2.56-1.63-4v-8.18Z"/><path class="cls-1" d="M126.75,158.22h3.74c2.24,0,3.29.24,4,.66a4,4,0,0,1,2,3.47,4,4,0,0,1-.85,2.54,4.1,4.1,0,0,1-3.19,1.41l3.58,4.84h-1.75l-4.06-5.64h.47a5.24,5.24,0,0,0,3.17-.67,3,3,0,0,0,.4-4.22,2.86,2.86,0,0,0-.74-.65,5.67,5.67,0,0,0-2.9-.47h-2.25v11.65h-1.61Z"/><polygon class="cls-1" points="144.54 158.22 146.13 158.22 146.16 171.13 144.57 171.13 144.54 158.22"/><polygon class="cls-1" points="157.53 159.49 154.01 159.49 154.01 158.22 162.68 158.22 162.68 159.49 159.14 159.49 159.17 171.13 157.56 171.13 157.53 159.49"/><polygon class="cls-1" points="173.99 166.59 169.36 158.22 171.1 158.22 174.8 165.2 178.44 158.22 180.18 158.22 175.59 166.59 175.6 171.13 174 171.13 173.99 166.59"/><path class="cls-1" d="M77.76,147.33H64.13V142c-1.38,2-4.83,6.93-14.51,6.93-14.52,0-24.06-11.55-24.1-26.4,0-16.7,11.53-26.21,23.72-26.21,8.47,0,12.54,4.26,14.1,5.86V81.56H77.69Zm-37.92-24.8c0,7.56,5.3,12.63,12,12.63a12.46,12.46,0,0,0,8.9-3.74,13.25,13.25,0,0,0-.22-17.86A11.77,11.77,0,0,0,52,110.09c-8.3,0-12.18,6.67-12.16,12.36Z"/><path class="cls-1" d="M137.06,98h13.4v5.25c1.63-2.4,4.65-6.93,13.21-6.93,16.16,0,17.84,13.5,17.85,20.17l.08,30.84H167.27l-.07-26.93c0-5.42-1.15-10.22-7.54-10.22-7.09,0-8.21,5.25-8.19,10.31l.06,26.84H137.18Z"/><polygon class="cls-1" points="201.22 144.84 183.3 98.01 198.6 98.01 208.44 126.62 217.53 98.01 232.75 98.01 206.35 171.21 191.13 171.21 201.22 144.84"/><path class="cls-1" d="M117.41,132.22a10,10,0,0,1-5.59,3.75c-5.39,1.61-11-.33-13-5.19l34.31-10.23c-1.4-9-5.3-16.1-12.93-20.77a24,24,0,0,0-19.56-2.32c-14,4.19-20.67,19.41-16.91,32.64a25.41,25.41,0,0,0,31.53,17.82,23.19,23.19,0,0,0,5.89-2.67Zm-13.28-22.83c7.14-2.13,11.47,2.32,12.43,4.44L96,120c-.3-2.32,1-8.45,8.15-10.58"/><polygon class="cls-2" points="119.72 90.8 90.78 90.8 90.76 84.85 119.71 84.85 119.72 90.8"/></g></g></svg>