<svg xmlns="http://www.w3.org/2000/svg" xmlns:xlink="http://www.w3.org/1999/xlink" viewBox="0 0 260 260"><defs><style>.cls-1{fill:none;}.cls-2{fill:#d91f3d;}.cls-3{clip-path:url(#clip-path);}.cls-4{fill:#fff;}</style><clipPath id="clip-path"><rect class="cls-1" width="260" height="260"/></clipPath></defs><g id="Calque_2" data-name="Calque 2"><g id="Calque_1-2" data-name="Calque 1"><rect class="cls-2" width="260" height="260"/><g class="cls-3"><path class="cls-4" d="M86.16,139.32c0,3.11-2.52,5.23-5.63,5.23a11.92,11.92,0,0,1-2.07,0c-3.25-.44-7.62-1-8.37-1.19V105.31c1.23-.27,6.32-1.1,8.39-1.35a14.25,14.25,0,0,1,2,0,5.31,5.31,0,0,1,5.63,5.24ZM85.9,92.71s-1.16.08-1.33.08C81,92.74,74.55,94,69.91,95L58.61,97.5v54.66c4.4.8,6.88,1.21,11.29,1.92,6.41,1,8.26,1.46,14.38,2.16l1.62,0A12.39,12.39,0,0,0,98.29,143.9V105.1A12.39,12.39,0,0,0,85.9,92.71"/><path class="cls-4" d="M139,140c0,5-3.77,9-8.42,9s-8.43-4.05-8.43-9v-30.7c0-5,3.77-9,8.43-9s8.42,4,8.42,9Zm-7-50.65h-3a18.42,18.42,0,0,0-18.42,18.42v33.76a18.42,18.42,0,0,0,18.42,18.42h3a18.43,18.43,0,0,0,18.42-18.42V107.76A18.42,18.42,0,0,0,132,89.34"/><path class="cls-4" d="M217.52,159.35c-25.92,8.64-56.11,13.23-87.6,13.23S68.22,168,42.3,159.35v-69c25.92-8.65,56.12-13.24,87.6-13.24s61.7,4.59,87.62,13.24Zm4.89-75.17c-27.22-9.44-59.21-14.43-92.51-14.43s-65.27,5-92.49,14.43l-2.48.87v79.61l2.48.86C64.63,175,96.62,180,129.92,180s65.27-5,92.49-14.43l2.48-.86V85.05"/><path class="cls-4" d="M162.89,158.14V91.6c3.09.28,4.8.54,7.9.9,1.89.23,2.9.42,4.74.74l8.3,22.49,10-19.12c2,.55,3.12.84,5.13,1.32,1.48.36,2.32.55,3.81.87l0,51.9c-1.64.55-2.59.84-4.26,1.28-1.84.49-2.89.73-4.77,1.08V117.8l-10.54,22.07-9.13-22.58v39.28c-2,.38-3.07.57-5,.86-2.42.35-3.78.5-6.2.71"/><path class="cls-4" d="M232.53,90.32h1.25c.67,0,1.05.28,1.05.83s-.43.8-1,.8h-1.35Zm-1.12,5.11h1.12V92.94h1.35l1,2.49h1.24l-1.15-2.66A1.49,1.49,0,0,0,236,91.25c0-1.8-1.33-2-2.51-2h-2.07Zm-2.76-2.94a5,5,0,1,1,5,5,5,5,0,0,1-5-5m5,5.86a5.86,5.86,0,1,0-5.85-5.86,5.86,5.86,0,0,0,5.85,5.86"/></g></g></g></svg>