<svg xmlns="http://www.w3.org/2000/svg" viewBox="0 0 254.54 283.9"><defs><style>.cls-1{fill:#ec1c24;}.cls-2{fill:#034693;}</style></defs><g id="Calque_2" data-name="Calque 2"><g id="Calque_1-2" data-name="Calque 1"><polygon class="cls-1" points="110.79 0 110.79 55.36 32.6 55.36 32.6 0 0 0 0 142.76 32.6 142.76 32.6 87.4 110.79 87.4 110.79 142.76 111.1 142.76 111.1 143.44 157.85 143.44 197.46 183.43 242.28 183.06 169.28 109.68 144.62 109.92 144.62 33.52 221.02 33.52 221.02 109.92 202.51 109.92 236.03 143.44 254.53 143.44 254.53 0 110.79 0"/><path class="cls-2" d="M208.12,276.23a31.39,31.39,0,0,1-11.24-7.64,34.76,34.76,0,0,1-7.28-12.17,47.64,47.64,0,0,1-2.6-16.25,47.09,47.09,0,0,1,2.57-16,33.77,33.77,0,0,1,7.31-12.07,32,32,0,0,1,11.44-7.62,40.59,40.59,0,0,1,15.05-2.65A43.31,43.31,0,0,1,234.06,203a39,39,0,0,1,7.34,2.6,28.39,28.39,0,0,1,4.65,2.78,12.11,12.11,0,0,0,2.63,1.69,2.25,2.25,0,0,0,1,.24,1.69,1.69,0,0,0,1.51-.9l1.63-2.66a44.53,44.53,0,0,0-5.92-4.38,36.36,36.36,0,0,0-6.64-3.2,41.3,41.3,0,0,0-7.7-2,56.27,56.27,0,0,0-9-.67,48.51,48.51,0,0,0-17.79,3.11,37.73,37.73,0,0,0-13.5,8.82,39.39,39.39,0,0,0-8.58,13.77,55.06,55.06,0,0,0,0,36,39.7,39.7,0,0,0,8.49,13.8,37.31,37.31,0,0,0,13.1,8.82,44.51,44.51,0,0,0,16.89,3.11,72.11,72.11,0,0,0,9.9-.63,57,57,0,0,0,8.46-1.81,44.22,44.22,0,0,0,7.37-2.93,56.27,56.27,0,0,0,6.65-4V244.16H230.92v3.38a1.32,1.32,0,0,0,.45,1,1.57,1.57,0,0,0,1.12.42h16.43v23q-2.85,1.63-5.65,2.93a42.51,42.51,0,0,1-5.92,2.21,43.75,43.75,0,0,1-6.73,1.36,65.7,65.7,0,0,1-8,.45,38.14,38.14,0,0,1-14.46-2.66M134.4,208.76c.28-.72.56-1.52.84-2.38s.57-1.79.85-2.75c.28,1,.56,1.88.84,2.75s.57,1.64.85,2.32l17.45,43.19H116.94Zm4.77-11.29H133L98,282.94h4.71a2.24,2.24,0,0,0,1.46-.49,2.55,2.55,0,0,0,.84-1.15l10-24.82h42l10.09,24.82a3,3,0,0,0,.85,1.18,2,2,0,0,0,1.39.46h4.77Zm-98.1,60.58L6.58,198.61a2.12,2.12,0,0,0-1-1,4.26,4.26,0,0,0-1.36-.18H0v85.47H5.38V210.09a33.29,33.29,0,0,0-.19-3.38l34.56,59.8a2.72,2.72,0,0,0,2.41,1.57h1a2.63,2.63,0,0,0,2.41-1.57l33.65-59.74a32.51,32.51,0,0,0-.18,3.32v72.85h5.43V197.47H80.16a4,4,0,0,0-1.34.18,2.17,2.17,0,0,0-1,1L44.28,258a14.73,14.73,0,0,0-.88,1.78c-.26.63-.51,1.26-.76,1.91a23.78,23.78,0,0,0-1.57-3.63"/></g></g></svg>