<svg xmlns="http://www.w3.org/2000/svg" viewBox="0 0 380.97 142.23"><defs><style>.cls-1,.cls-2{fill:#77787b;}.cls-1{fill-rule:evenodd;}.cls-3{fill:#d91f3d;}</style></defs><g id="Calque_2" data-name="Calque 2"><g id="Calque_1-2" data-name="Calque 1"><path class="cls-1" d="M373.41,38.23a7.56,7.56,0,1,0-7.56-7.55,7.55,7.55,0,0,0,7.56,7.55M367,30.68a6.44,6.44,0,1,1,6.43,6.43A6.44,6.44,0,0,1,367,30.68m3.57,3.79H372V31.26h1.74L375,34.47h1.6L375.08,31a1.88,1.88,0,0,0,1.39-1.95c0-2.32-1.73-2.57-3.26-2.57h-2.66ZM372,27.88h1.61c.86,0,1.35.35,1.35,1.06s-.55,1-1.22,1H372V27.88"/><polygon class="cls-2" points="0 115.22 26.07 35.85 41.79 35.81 41.85 67.64 57.34 35.81 74.53 35.85 63.6 95.73 48.84 95.73 55.39 65.77 40.58 95.73 32.52 95.73 29.91 66 13.06 115.31 0 115.22"/><path class="cls-2" d="M77.66,54.8H112L109.38,70H88.32l-2.1,10.62h21L104.63,95.7l-34.47,0ZM81.1,35.85l34.49,0L113,49.63H78.54Z"/><path class="cls-2" d="M120.56,35.85l39.63,0-2.53,13.88H118Zm23.67,19L136.79,95.7l-14.55,0,7.51-40.87Z"/><path class="cls-2" d="M163.78,54.93h26.87l4.56,40.8L179,95.7l-1.7-24.21h-5.07L161.86,95.73h-17.2l18.15-39.09ZM190,49.6l-1.84-13.78H171.82L165.43,49.6Z"/><polygon class="cls-2" points="209.9 35.85 223.81 35.81 215.66 80.27 236.1 80.23 233.28 95.7 198.91 95.73 209.9 35.85"/><polygon class="cls-2" points="280.83 54.83 284.28 35.81 270.89 35.85 267.29 55.53 262.35 80.74 255.16 80.74 263.3 35.81 250 35.85 246.53 54.83 246.48 54.83 239.02 95.73 239.06 95.73 252.45 95.73 252.45 95.72 273.35 95.7 275.27 85.24 275.32 85.24 280.05 59.17 280.84 54.83 280.83 54.83"/><path class="cls-2" d="M351.61,16q-6.81-2.13-13.9-4h-.41L310.42,49.77l-5.06-14H288.24L299.09,65.7l-21.39,30h17.12l10-14.1L310,95.73h17.13l-10.91-30Z"/><path class="cls-3" d="M359.42,18.6c-1.54-.53-3.1-1-4.67-1.55l-.55.77-5.31,7.45c1.4.45,2.84.85,4.21,1.3v89.06c-33.45,11.16-72.44,17.09-113.08,17.09s-79.65-5.93-113.11-17.09v-.3h-9.52v7.16l3.2,1.12C155.73,135.79,197,142.23,240,142.23s84.26-6.44,119.4-18.62l3.19-1.12V19.72Z"/><path class="cls-3" d="M334.07,11.08C305.94,4,275,.23,243,0V9.52a379.15,379.15,0,0,1,85.08,9.94Z"/></g></g></svg>