<?xml version="1.0" encoding="utf-8"?>
<!-- Generator: Adobe Illustrator 28.0.0, SVG Export Plug-In . SVG Version: 6.00 Build 0)  -->
<svg version="1.1" id="Calque_1" xmlns="http://www.w3.org/2000/svg" xmlns:xlink="http://www.w3.org/1999/xlink" x="0px" y="0px"
	 viewBox="0 0 540 540" style="enable-background:new 0 0 540 540;" xml:space="preserve">
<style type="text/css">
	.st0{display:none;}
	.st1{display:inline;fill:#76BC21;}
	.st2{display:inline;fill:#1C355E;}
	.st3{fill:#1C355E;}
	.st4{display:none;fill:#1C355E;}
	.st5{fill:#FFC629;}
</style>
<g class="st0">
	<path class="st1" d="M257.5,227.4h4.2l23.2,62.2h-3.1l-7.4-19.8h-29.5l-7.3,19.8h-3L257.5,227.4z M245.7,267.2h27.6l-13.8-37.3
		L245.7,267.2z"/>
	<path class="st1" d="M289.8,267.3v-0.7c0-13.8,9.7-23.2,21.5-23.2c9.1,0,17.3,5.3,18.5,14.7h-3c-1-7.9-7.9-12.1-15.6-12.1
		c-10.2,0-18.5,7.8-18.5,20.5v0.7c0,12.6,8.2,20.5,18.4,20.5c8.3,0,15-4.8,16.4-13.5h2.8c-1.4,9.7-9.2,16.1-19.1,16.1
		C299.3,290.3,289.8,281,289.8,267.3"/>
	<path class="st1" d="M337.5,267.3v-0.7c0-13.8,9.7-23.2,21.5-23.2c9.1,0,17.3,5.3,18.5,14.7h-3c-1-7.9-7.9-12.1-15.6-12.1
		c-10.2,0-18.5,7.8-18.5,20.5v0.7c0,12.6,8.2,20.5,18.4,20.5c8.3,0,15-4.8,16.4-13.5h2.8c-1.4,9.7-9.2,16.1-19.1,16.1
		C346.9,290.3,337.5,281,337.5,267.3"/>
	<path class="st1" d="M385.1,267.3v-0.7c0-13.6,8.7-23.2,20.6-23.2c11.2,0,19.5,7.7,19.5,21.9v1.3h-37.1
		c0.1,13.2,6.5,21.1,18.2,21.1c7.8,0,13.8-3.5,15.6-10.6h3c-2.1,8.4-9.1,13.2-18.5,13.2C393.1,290.3,385.1,280.8,385.1,267.3
		 M422.2,264.1c-0.3-12-6.9-18.1-16.5-18.1c-9.7,0-16.8,7.1-17.5,18.1H422.2z"/>
	<path class="st1" d="M432.4,276.2h2.9c0.9,6.7,5.3,11.7,14.4,11.7c8.2,0,12.6-4.4,12.6-10.1c0-6.6-3.3-8.5-12.7-10.3
		c-10.7-1.9-15.7-4.4-15.7-12.4c0-7.1,6.7-11.7,14.9-11.7c8.2,0,14.1,3.5,15.4,11.8h-2.9c-1.2-6.4-5.6-9.3-12.6-9.3
		c-7.1,0-12,3.7-12,9.1c0,5.9,3.7,8,13.6,9.7c10,1.8,15,4.3,15,12.7c0,7.1-5.7,12.8-15.6,12.8C439.2,290.4,433.1,284.6,432.4,276.2"
		/>
	<path class="st1" d="M472.1,276.2h2.9c0.9,6.7,5.3,11.7,14.4,11.7c8.2,0,12.6-4.4,12.6-10.1c0-6.6-3.3-8.5-12.7-10.3
		c-10.7-1.9-15.7-4.4-15.7-12.4c0-7.1,6.7-11.7,14.9-11.7c8.2,0,14.1,3.5,15.4,11.8h-2.9c-1.2-6.4-5.6-9.3-12.6-9.3
		c-7.1,0-12,3.7-12,9.1c0,5.9,3.7,8,13.6,9.7c10,1.8,15,4.3,15,12.7c0,7.1-5.7,12.8-15.6,12.8C478.9,290.4,472.8,284.6,472.1,276.2"
		/>
	<path class="st2" d="M109.4,227.3h21.3v9.3c3.6-5.9,10-10.9,19.4-10.9c14.5,0,26.3,10.9,26.3,32.2v1c0,21.4-11.8,32.1-26.4,32.1
		c-9.4,0-16.2-4.4-19.3-10.6v30h-21.3V227.3z M154.7,258.9v-1c0-10.9-4.8-16.2-12.3-16.2c-7.7,0-12.4,5.6-12.4,16.1v1
		c0,10.6,4.6,15.9,12.4,15.9C150.5,274.7,154.7,269.1,154.7,258.9"/>
	<path class="st2" d="M181.8,227.3h21.3v12.4c3.9-9.3,10.5-13.3,20.1-13.2v19.9c-13-0.4-20.1,3.7-20.1,13.7v29.5h-21.3V227.3z"/>
	<polygon class="st1" points="60,227.3 36.9,227.3 59.8,258.4 36.9,289.6 60,289.6 82.9,258.4 	"/>
	<polygon class="st2" points="82.9,258.4 71.3,274.1 82.7,289.6 105.8,289.6 	"/>
	<polygon class="st2" points="87.1,252.7 105.8,227.3 82.7,227.3 75.5,237 	"/>
</g>
<g>
	<path class="st3" d="M326.7,150.6c-26.6,0-44.7,14.1-54.8,30.9v-26.2h-60.2V390h60.2v-84.7c8.7,17.5,27.9,29.9,54.5,29.9
		c41.4,0,74.6-30.3,74.6-90.8v-2.7C401,181.5,367.7,150.6,326.7,150.6 M339.8,244.4c0,28.9-12.1,44.7-34.6,44.7
		c-21.9,0-35-15.1-35-45.1v-2.7c0-29.6,13.1-45.4,35-45.4c21.2,0,34.6,14.8,34.6,45.7V244.4z"/>
	<path class="st3" d="M476.6,190.3v-35h-60.2v175.9h60.2v-83.4c0-28.3,20.2-39.7,56.8-38.7v-56.2C506.2,152.6,487.7,164,476.6,190.3
		"/>
	<polygon class="st4" points="522.5,324.8 516.5,309.9 511.5,309.9 511.5,331.2 514.8,331.2 514.8,314.6 521.7,331.2 522.9,331.2 
		529.7,314.6 529.7,331.2 533.4,331.2 533.4,309.9 528.3,309.9 	"/>
	<polygon class="st4" points="491.2,312.8 497.6,312.8 497.6,331.2 501.3,331.2 501.3,312.8 507.7,312.8 507.7,309.9 491.2,309.9 	
		"/>
	<polygon class="st3" points="71.9,155.3 6.7,155.3 71.4,243.2 6.7,331.2 71.9,331.2 104,287.6 136.1,331.2 201.3,331.2 
		136.6,243.2 	"/>
	<polygon class="st5" points="201.3,155.3 136.1,155.3 115.9,182.7 148.5,227 	"/>
</g>
</svg>
