<?xml version="1.0" encoding="UTF-8"?>
<svg id="Calque_2" data-name="Calque 2" xmlns="http://www.w3.org/2000/svg" viewBox="0 0 170 77.27">
  <defs>
    <style>
      .cls-1 {
        fill: #ffc629;
      }

      .cls-1, .cls-2 {
        stroke-width: 0px;
      }

      .cls-2 {
        fill: #1c355e;
      }
    </style>
  </defs>
  <g id="Calque_1-2" data-name="Calque 1">
    <g>
      <path class="cls-2" d="m103.28,0c-8.58,0-14.43,4.56-17.69,9.98V1.52h-19.43v75.76h19.43v-27.35c2.82,5.64,9.01,9.66,17.58,9.66,13.35,0,24.09-9.77,24.09-29.3v-.87c0-19.43-10.74-29.41-23.98-29.41m4.23,30.28c0,9.33-3.91,14.43-11.18,14.43s-11.29-4.88-11.29-14.54v-.87c0-9.55,4.23-14.65,11.29-14.65s11.18,4.78,11.18,14.76v.87Z"/>
      <path class="cls-2" d="m151.66,12.81V1.52h-19.43v56.76h19.43v-26.91c0-9.12,6.51-12.81,18.34-12.48V.76c-8.79-.11-14.76,3.58-18.34,12.05"/>
      <polygon class="cls-2" points="21.06 1.52 0 1.52 20.88 29.9 0 58.28 21.06 58.28 31.41 44.21 41.76 58.28 62.82 58.28 41.94 29.9 21.06 1.52"/>
      <polygon class="cls-1" points="62.82 1.52 41.76 1.52 35.25 10.37 45.78 24.68 62.82 1.52"/>
    </g>
  </g>
</svg>