<?xml version="1.0" encoding="UTF-8"?>
<svg id="Calque_2" data-name="Calque 2" xmlns="http://www.w3.org/2000/svg" viewBox="0 0 123.2 56">
  <defs>
    <style>
      .cls-1 {
        fill: #ffc629;
      }

      .cls-1, .cls-2 {
        stroke-width: 0px;
      }

      .cls-2 {
        fill: #1c355e;
      }
    </style>
  </defs>
  <g id="Calque_1-2" data-name="Calque 1">
    <g>
      <path class="cls-2" d="m74.84,0c-6.21,0-10.46,3.3-12.82,7.24V1.1h-14.08v54.9h14.08v-19.82c2.05,4.09,6.53,7,12.74,7,9.67,0,17.46-7.08,17.46-21.24v-.63c0-14.08-7.79-21.31-17.38-21.31m3.07,21.94c0,6.76-2.83,10.46-8.1,10.46s-8.18-3.54-8.18-10.54v-.63c0-6.92,3.07-10.62,8.18-10.62s8.1,3.46,8.1,10.7v.63Z"/>
      <path class="cls-2" d="m109.91,9.28V1.1h-14.08v41.13h14.08v-19.5c0-6.61,4.72-9.28,13.29-9.05V.55c-6.37-.08-10.7,2.6-13.29,8.73"/>
      <polygon class="cls-2" points="15.26 1.1 0 1.1 15.13 21.67 0 42.24 15.26 42.24 22.76 32.04 30.26 42.24 45.52 42.24 30.39 21.67 15.26 1.1"/>
      <polygon class="cls-1" points="45.52 1.1 30.26 1.1 25.54 7.51 33.18 17.88 45.52 1.1"/>
    </g>
  </g>
</svg>